<svg xmlns="http://www.w3.org/2000/svg" xmlns:xlink="http://www.w3.org/1999/xlink" viewBox="0 0 300.25 301.688"><defs><linearGradient id="a"><stop offset="0" stop-color="#ffe34a"/><stop offset="1" stop-color="#ea1a31"/></linearGradient><linearGradient xlink:href="#a" id="b" x1="351.699" y1="395.339" x2="351.699" y2="613.751" gradientUnits="userSpaceOnUse"/></defs><path d="M505.714 528.434c0 74.755-66.358 135.357-148.214 135.357s-148.214-60.602-148.214-135.357c0-74.756 66.358-135.358 148.214-135.358s148.214 60.602 148.214 135.358z" transform="matrix(.96962 0 0 1.04652 -195.044 -404.16)" fill="url(#b)"/><path d="M150.125 0C67.21 0 0 67.537 0 150.844c0 83.307 67.21 150.844 150.125 150.844 82.916 0 150.125-67.537 150.125-150.844C300.25 67.537 233.041 0 150.125 0zM144 14.625c8.078-.073 20.483.067 29.188 1.406 13.929 2.143 19.281 4.652 36.781 11.438 17.5 6.786 26.62 17.696 38.406 27.875 11.786 10.179 25.536 38.027 28.75 44.812 3.215 6.786 9.29 35.532 9.47 44.282.178 8.75-1.434 26.607-3.22 36.25-1.785 9.643-9.665 26.96-14.843 36.781-5.179 9.821-16.406 23.938-16.406 23.938s3.022-8.92 4.093-16.063c1.072-7.143-.888-21.076-5.531-29.469s-16.246-23.937-31.781-31.437c-15.536-7.5-31.433-5.701-53.219-4.094-21.786 1.607-36.96 1.41-49.281-2.875-12.322-4.286-17.152-18.045-17.688-23.938-.535-5.892.906-8.549 3.406-12.656 2.5-4.107.54-5.174-.53-5.531-1.072-.357-2.331-2.87-2.688-7.156-.357-4.286.343-11.594.343-11.594s1.442 2.848 2.157 12.313c.714 9.464 12.674 12.843 16.781 12.843 4.107 0 11.612.545 21.969-7.312 10.357-7.857 20.16.187 24.625 1.437 4.464 1.25 17.321 10.34 26.25 20.875 8.928 10.536 12.152 7.692 18.937 8.406 6.786.715 6.268 2.853 14.125 3.032 7.857.178 12.313-6.781 12.313-6.781s5.16 22.67 7.125 29.812c1.964 7.143 11.62 23.402 23.406 23.938 11.786.535 13.563-11.782 13.563-11.782s-5.17 5.692-12.313 5.156c-7.143-.535-10.188-7.843-10.188-7.843s6.97 2.156 9.47 2.156c2.5 0 7.504-1.607 11.968-5s8.754-17.527 1.969-21.813c-6.786-4.285-10.906-1.78-10.906-1.78s2.147.557 4.468 2.343c2.322 1.786 3.219 2.12 3.219 7.656s-1.612 11.26-9.469 11.438c-7.857.178-14.455-3.031-17.312-10.531-2.857-7.5-4.826-15.884-8.219-24.813-3.393-8.929-11.063-14.469-11.063-14.469s1.585.156 6.407.156c4.821 0 4.312 8.063 4.312 8.063s4.094-1.08 5.344-2.688c1.25-1.607.531-7.687.531-7.687s1.241.531 2.313-1.969c1.071-2.5-3.01-3.38.562-6.594 3.572-3.214 2.143-2.49 0-6.062-2.143-3.571-1.071-1.813 2.5-1.813 3.572 0 3.201-1.062-2.156-8.562-5.357-7.5-9.647-4.991-13.219-3.563-3.571 1.43-9.643-1.424-15-4.28-5.357-2.858-4.63-2.858-7.844-2.5-3.214.356-6.428-.376-10-2.876-3.57-2.5-1.803-1.058-7.875-7.844-6.07-6.785 10.375-6.062 10.375-6.062s-2.156-9.66-9.656-15.375c-7.5-5.714-17.125-3.563-17.125-3.563s-1.076-7.513-3.219-9.656c-2.142-2.143-7.522-2.5-13.593-2.5h-12.844c-8.929 0-5.004-2.13-3.219-5.344 1.786-3.214-3.571-3.227-7.5 2.844-3.928 6.072-6.41.737-9.625-1.406-3.214-2.143-2.884 3.205-11.812-3.938-8.929-7.142 0-15.348 7.5-16.062 7.5-.714 8.937 8.187 8.937 8.187s2.51-4.625 1.438-7.125c-1.072-2.5-1.782-2.875-1.782-2.875s3.279-.112 8.125-.156zm-36.718 6.969s-3.188 6.777 1.812 11.062c5 4.286 9.281 7.844 9.281 7.844s-13.223-2.486-18.937-2.844c-5.714-.357-12.866-1.433-8.938-5.718 3.93-4.286 4.295-4.657 6.438-4.657s6.437 2.5 6.437 2.5.335-3.566-1.093-4.28c-1.429-.715-3.188-1.407-3.188-1.407l8.188-2.5zM80.875 33.719s-1.075 6.062 6.782 8.562c7.857 2.5 13.562 5 13.562 5s-23.937.375-31.437 5.375S56.58 62.29 54.438 66.22c-2.143 3.929-5 10.723-7.5 11.438-2.5.714-4.286 1.794-5-1.063-.418-1.672-1.82-3.344-2.906-3.156-.393.554-.773 1.126-1.157 1.687a9.734 9.734 0 00-.218 2.156c0 6.43 5.718 11.094 5.718 11.094S37.3 95.14 35.157 99.781c-2.143 4.643-4.657 21.09-4.657 32.875 0 11.786-.705 24.273-3.562 27.844-2.857 3.572-2.143 5.38-5 6.094L16.219 168s4.652 5.719 11.438 5.719c6.785 0 12.125-7.125 12.125-7.125s3.571 11.054 7.5 17.125a19208.67 19208.67 0 0110.375 16.063s-.715 11.089 0 17.874c.714 6.786-.719 13.93-8.219 10-7.5-3.928-7.156 1.054-2.156 4.625 5 3.572 11.089 4.67 15.375 1.813 4.285-2.857 5.348-7.17 6.062-11.813.715-4.642.375-4.977 2.875-6.406 2.5-1.428 8.55 2.5 8.906 10 .358 7.5 1.085 7.139 2.157 9.281 1.071 2.143.723 3.559-1.063 5.344-1.785 1.786-.013 4.652 2.844 1.438 2.857-3.215 4.3-4.643 4.656-7.5.357-2.857 2.125-5.344 2.125-5.344s8.215 3.55 15 3.906c6.786.357 18.58 7.518 18.938 15.375.357 7.857-6.438 10.715-18.938 12.5-12.5 1.786-27.482-.71-39.625-6.781s-33.598-26.071-41.812-50c-8.215-23.929-10.701-41.795-10.344-48.938.357-7.142.7-37.138 10.344-56.78 5.052-10.292 8.844-17.039 13.093-23.25.242-1.09.65-1.6 1.157-1.688 3.559-5.023 7.546-9.878 12.906-16.157C64.438 42.64 80.875 33.72 80.875 33.72zm74 30.375c.414-.034.815-.017 1.25 0 6.965.268 6.809 2.656 12.344 5.781 5.536 3.125 9.281 5.813 9.281 5.813s-6.258 1.348-11.437-1.063c-5.179-2.41-9.286-4.375-11.875-4.375-2.59 0-9.563.25-9.563.25s3.791-5.891 10-6.406zm11.25 26.813c3.148-.025 6.75.671 10.813 2.468 18.571 8.215 16.259 15.161 27.688 22.125 11.428 6.965 15.53 7.688 15.53 7.688l.532 12.5s-13.75-.362-28.75-10.719-17.665-15.174-24.094-18.031c-6.428-2.857-18.406-6.782-18.406-6.782s5.448-9.161 16.688-9.25zm51.063 7.406c5.23-.171 7.969 4.875 7.969 4.875s-4.643.17-7.5 1.062c-2.857.893-4.813 2.156-4.813 2.156s-4.848-5.544 1.938-7.687a8.918 8.918 0 012.406-.406zm11.625 31.437c.156-.012.307-.005.469 0a5.07 5.07 0 012.375.656c2.054 1.176 2.962 3.468 2.031 5.094-.93 1.627-3.352 1.988-5.406.813-2.055-1.176-2.962-3.436-2.032-5.063.51-.89 1.468-1.411 2.563-1.5z"/></svg>