<svg xmlns="http://www.w3.org/2000/svg" xmlns:xlink="http://www.w3.org/1999/xlink" width="2500" zoomAndPan="magnify" viewBox="0 0 1874.88 599.999999" height="800" preserveAspectRatio="xMidYMid meet" version="1.0"><path fill="#ed1c24" d="M 1003.074219 387.75 L 936.277344 313.167969 L 850.988281 313.167969 L 850.988281 263.070312 L 957.410156 263.070312 C 971.753906 263.070312 982.753906 259.054688 990.429688 251.011719 C 998.105469 242.980469 1001.941406 231.679688 1001.941406 217.109375 C 1001.941406 202.550781 998.109375 191.496094 990.457031 183.960938 C 982.796875 176.429688 971.808594 172.664062 957.5 172.664062 L 817.023438 172.664062 L 817.023438 387.75 L 758.152344 387.75 L 758.152344 113.898438 L 957.410156 113.898438 C 973.511719 113.898438 987.851562 116.289062 1000.433594 121.054688 C 1013.011719 125.832031 1023.699219 132.609375 1032.511719 141.398438 C 1041.316406 150.1875 1048.042969 160.863281 1052.703125 173.414062 C 1057.351562 185.976562 1059.683594 200.039062 1059.683594 215.609375 C 1059.683594 238.460938 1054.777344 257.417969 1044.964844 272.484375 C 1035.152344 287.550781 1021.566406 298.476562 1004.207031 305.253906 L 1086.476562 387.75 Z M 1003.074219 387.75 " fill-opacity="1" fill-rule="nonzero"/><path fill="#ed1c24" d="M 1207.992188 225.398438 L 1353.664062 225.398438 L 1353.664062 271.734375 L 1207.992188 271.734375 Z M 1115.15625 387.75 L 1115.15625 113.898438 L 1364.605469 113.898438 L 1364.605469 172.664062 L 1174.027344 172.664062 L 1174.027344 328.988281 L 1364.984375 328.988281 L 1364.984375 387.75 Z M 1115.15625 387.75 " fill-opacity="1" fill-rule="nonzero"/><path fill="#ed1c24" d="M 1571.191406 328.988281 C 1582.234375 328.988281 1592.46875 327.046875 1601.882812 323.148438 C 1611.292969 319.257812 1619.390625 313.863281 1626.171875 306.953125 C 1632.953125 300.046875 1638.289062 291.824219 1642.183594 282.28125 C 1646.074219 272.738281 1648.019531 262.316406 1648.019531 251.015625 C 1648.019531 239.714844 1646.074219 229.230469 1642.183594 219.558594 C 1638.289062 209.894531 1632.953125 201.609375 1626.171875 194.695312 C 1619.390625 187.796875 1611.292969 182.398438 1601.882812 178.503906 C 1592.46875 174.609375 1582.234375 172.664062 1571.191406 172.664062 L 1468.382812 172.664062 L 1468.382812 328.988281 Z M 1409.511719 387.753906 L 1409.511719 113.898438 L 1571.03125 113.898438 C 1590.65625 113.898438 1608.773438 117.167969 1625.375 123.691406 C 1641.980469 130.226562 1656.320312 139.390625 1668.398438 151.191406 C 1680.472656 163 1689.910156 177.125 1696.699219 193.570312 C 1703.492188 210.019531 1706.890625 228.167969 1706.890625 248 C 1706.890625 267.839844 1703.492188 286.300781 1696.699219 303.375 C 1689.910156 320.453125 1680.472656 335.203125 1668.398438 347.632812 C 1656.320312 360.0625 1641.980469 369.859375 1625.375 377.015625 C 1608.773438 384.171875 1590.65625 387.753906 1571.03125 387.753906 Z M 1409.511719 387.753906 " fill-opacity="1" fill-rule="nonzero"/><path fill="#ed1c24" d="M 775.683594 458.484375 L 775.683594 449.734375 L 796.492188 449.734375 C 800.433594 449.734375 802.40625 448.074219 802.40625 444.753906 C 802.40625 442.761719 801.742188 441.425781 800.410156 440.734375 C 799.078125 440.046875 797.203125 439.703125 794.78125 439.703125 L 769.269531 439.703125 L 769.269531 469.292969 L 795.691406 469.292969 C 798.117188 469.292969 800.023438 468.859375 801.40625 467.988281 C 802.785156 467.113281 803.472656 465.734375 803.472656 463.851562 C 803.472656 462.152344 802.941406 460.835938 801.871094 459.894531 C 800.800781 458.953125 799.269531 458.484375 797.273438 458.484375 Z M 758.152344 480.390625 L 758.152344 428.609375 L 796.277344 428.609375 C 798.890625 428.609375 801.261719 428.894531 803.398438 429.464844 C 805.542969 430.035156 807.378906 430.890625 808.925781 432.035156 C 810.46875 433.171875 811.65625 434.589844 812.488281 436.277344 C 813.320312 437.96875 813.734375 439.929688 813.734375 442.164062 C 813.734375 443.730469 813.554688 445.113281 813.203125 446.296875 C 812.84375 447.488281 812.382812 448.511719 811.8125 449.367188 C 811.238281 450.222656 810.601562 450.9375 809.886719 451.507812 C 809.175781 452.078125 808.460938 452.53125 807.75 452.863281 C 809.765625 453.667969 811.445312 455.042969 812.789062 456.984375 C 814.132812 458.933594 814.804688 461.257812 814.804688 463.957031 C 814.804688 466.519531 814.386719 468.820312 813.554688 470.859375 C 812.722656 472.894531 811.558594 474.617188 810.058594 476.015625 C 808.558594 477.414062 806.761719 478.492188 804.671875 479.25 C 802.578125 480.011719 800.25 480.390625 797.683594 480.390625 Z M 758.152344 480.390625 " fill-opacity="1" fill-rule="nonzero"/><path fill="#ed1c24" d="M 845.304688 480.386719 L 845.304688 461.609375 L 818.296875 428.679688 L 833.191406 428.679688 L 851.289062 451.511719 L 869.390625 428.679688 L 883.496094 428.679688 L 856.421875 461.609375 L 856.421875 480.386719 Z M 845.304688 480.386719 " fill-opacity="1" fill-rule="nonzero"/><path fill="#ed1c24" d="M 920.910156 480.386719 L 920.910156 428.679688 L 932.027344 428.679688 L 932.027344 469.292969 L 965.519531 469.292969 L 965.519531 480.386719 Z M 920.910156 480.386719 " fill-opacity="1" fill-rule="nonzero"/><path fill="#ed1c24" d="M 1022.238281 428.675781 L 1033.070312 428.675781 L 1033.070312 457.558594 C 1033.070312 461.539062 1032.546875 465.015625 1031.5 467.976562 C 1030.457031 470.941406 1028.792969 473.394531 1026.515625 475.339844 C 1024.234375 477.285156 1021.285156 478.726562 1017.679688 479.675781 C 1014.066406 480.628906 1009.71875 481.101562 1004.636719 481.101562 C 999.554688 481.101562 995.214844 480.628906 991.632812 479.675781 C 988.046875 478.726562 985.113281 477.285156 982.832031 475.339844 C 980.554688 473.394531 978.875 470.941406 977.808594 467.976562 C 976.738281 465.015625 976.203125 461.539062 976.203125 457.558594 L 976.203125 428.675781 L 987.675781 428.675781 L 987.675781 457.558594 C 987.675781 459.835938 987.949219 461.777344 988.496094 463.386719 C 989.042969 465.003906 989.980469 466.316406 991.3125 467.335938 C 992.640625 468.355469 994.414062 469.09375 996.621094 469.539062 C 998.828125 469.996094 1001.617188 470.214844 1004.992188 470.214844 C 1008.316406 470.214844 1011.085938 469.996094 1013.296875 469.539062 C 1015.503906 469.09375 1017.273438 468.355469 1018.605469 467.335938 C 1019.933594 466.316406 1020.871094 465.003906 1021.417969 463.386719 C 1021.964844 461.777344 1022.238281 459.835938 1022.238281 457.558594 Z M 1022.238281 428.675781 " fill-opacity="1" fill-rule="nonzero"/><path fill="#ed1c24" d="M 1063.78125 466.449219 L 1063.78125 455.707031 L 1083.089844 455.707031 C 1085.800781 455.707031 1087.914062 454.984375 1089.433594 453.539062 C 1090.953125 452.09375 1091.714844 450.15625 1091.714844 447.738281 C 1091.714844 445.277344 1090.953125 443.328125 1089.4375 441.910156 C 1087.921875 440.488281 1085.8125 439.773438 1083.109375 439.773438 L 1057.367188 439.773438 L 1057.367188 480.390625 L 1046.25 480.390625 L 1046.25 428.679688 L 1083.089844 428.679688 C 1086.132812 428.679688 1088.863281 429.121094 1091.285156 429.992188 C 1093.710938 430.871094 1095.75 432.117188 1097.414062 433.730469 C 1099.074219 435.339844 1100.347656 437.308594 1101.226562 439.632812 C 1102.105469 441.957031 1102.546875 444.539062 1102.546875 447.386719 C 1102.546875 450.230469 1102.105469 452.816406 1101.226562 455.136719 C 1100.347656 457.460938 1099.074219 459.464844 1097.414062 461.152344 C 1095.75 462.835938 1093.710938 464.136719 1091.285156 465.058594 C 1088.863281 465.984375 1086.132812 466.449219 1083.089844 466.449219 Z M 1063.78125 466.449219 " fill-opacity="1" fill-rule="nonzero"/><path fill="#ed1c24" d="M 1114.445312 428.679688 L 1125.5625 428.679688 L 1125.5625 480.386719 L 1114.445312 480.386719 Z M 1114.445312 428.679688 " fill-opacity="1" fill-rule="nonzero"/><path fill="#ed1c24" d="M 1150.359375 445.964844 L 1150.359375 480.390625 L 1139.8125 480.390625 L 1139.8125 434.582031 C 1139.8125 432.546875 1140.3125 430.941406 1141.308594 429.78125 C 1142.304688 428.621094 1143.660156 428.039062 1145.371094 428.039062 C 1146.175781 428.039062 1146.925781 428.191406 1147.617188 428.5 C 1148.304688 428.808594 1149.050781 429.347656 1149.859375 430.105469 L 1183.777344 462.605469 L 1183.777344 428.183594 L 1194.398438 428.183594 L 1194.398438 474.488281 C 1194.398438 476.617188 1193.886719 478.253906 1192.867188 479.394531 C 1191.84375 480.535156 1190.503906 481.101562 1188.839844 481.101562 C 1187.222656 481.101562 1185.703125 480.390625 1184.277344 478.964844 Z M 1150.359375 445.964844 " fill-opacity="1" fill-rule="nonzero"/><path fill="#ed1c24" d="M 1225.679688 449.730469 L 1253.183594 449.730469 L 1253.183594 458.480469 L 1225.679688 458.480469 Z M 1208.148438 480.386719 L 1208.148438 428.679688 L 1255.25 428.679688 L 1255.25 439.777344 L 1219.265625 439.777344 L 1219.265625 469.292969 L 1255.320312 469.292969 L 1255.320312 480.386719 Z M 1208.148438 480.386719 " fill-opacity="1" fill-rule="nonzero"/><path fill="#ed1c24" d="M 1264.515625 428.675781 L 1278.050781 428.675781 L 1299.714844 465.59375 L 1321.308594 428.675781 L 1334.0625 428.675781 L 1304.632812 477.542969 C 1303.96875 478.636719 1303.207031 479.5 1302.355469 480.140625 C 1301.496094 480.777344 1300.476562 481.101562 1299.289062 481.101562 C 1298.050781 481.101562 1297.019531 480.777344 1296.1875 480.140625 C 1295.355469 479.5 1294.609375 478.636719 1293.945312 477.542969 Z M 1264.515625 428.675781 " fill-opacity="1" fill-rule="nonzero"/><path fill="#ed1c24" d="M 1380.953125 480.386719 L 1373.683594 468.15625 L 1351.808594 468.15625 L 1356.867188 459.546875 L 1368.554688 459.546875 L 1359.074219 443.617188 L 1337.34375 480.386719 L 1324.726562 480.386719 L 1354.160156 431.527344 C 1354.824219 430.4375 1355.570312 429.566406 1356.402344 428.929688 C 1357.234375 428.289062 1358.265625 427.96875 1359.5 427.96875 C 1360.738281 427.96875 1361.773438 428.289062 1362.601562 428.929688 C 1363.429688 429.566406 1364.179688 430.4375 1364.847656 431.527344 L 1394.277344 480.386719 Z M 1380.953125 480.386719 " fill-opacity="1" fill-rule="nonzero"/><path fill="#ed1c24" d="M 1445.582031 428.675781 L 1456.414062 428.675781 L 1456.414062 457.558594 C 1456.414062 461.539062 1455.890625 465.015625 1454.847656 467.976562 C 1453.804688 470.941406 1452.136719 473.394531 1449.859375 475.339844 C 1447.578125 477.285156 1444.632812 478.726562 1441.023438 479.675781 C 1437.410156 480.628906 1433.066406 481.101562 1427.980469 481.101562 C 1422.898438 481.101562 1418.5625 480.628906 1414.976562 479.675781 C 1411.390625 478.726562 1408.457031 477.285156 1406.175781 475.339844 C 1403.898438 473.394531 1402.222656 470.941406 1401.152344 467.976562 C 1400.085938 465.015625 1399.550781 461.539062 1399.550781 457.558594 L 1399.550781 428.675781 L 1411.023438 428.675781 L 1411.023438 457.558594 C 1411.023438 459.835938 1411.296875 461.777344 1411.84375 463.386719 C 1412.386719 465.003906 1413.324219 466.316406 1414.660156 467.335938 C 1415.984375 468.355469 1417.757812 469.09375 1419.964844 469.539062 C 1422.175781 469.996094 1424.964844 470.214844 1428.339844 470.214844 C 1431.664062 470.214844 1434.433594 469.996094 1436.640625 469.539062 C 1438.847656 469.09375 1440.621094 468.355469 1441.949219 467.335938 C 1443.277344 466.316406 1444.21875 465.003906 1444.765625 463.386719 C 1445.308594 461.777344 1445.582031 459.835938 1445.582031 457.558594 Z M 1445.582031 428.675781 " fill-opacity="1" fill-rule="nonzero"/><path fill="#ed1c24" d="M 1469.597656 480.386719 L 1469.597656 428.679688 L 1480.714844 428.679688 L 1480.714844 469.292969 L 1514.207031 469.292969 L 1514.207031 480.386719 Z M 1469.597656 480.386719 " fill-opacity="1" fill-rule="nonzero"/><path fill="#ed1c24" d="M 1533.515625 480.386719 L 1533.515625 439.777344 L 1514.492188 439.777344 L 1514.492188 428.679688 L 1563.65625 428.679688 L 1563.65625 439.777344 L 1544.628906 439.777344 L 1544.628906 480.386719 Z M 1533.515625 480.386719 " fill-opacity="1" fill-rule="nonzero"/><path fill="#ed1c24" d="M 523.144531 300.558594 L 438.273438 300.558594 L 528.378906 459.878906 L 430.695312 459.878906 L 339.414062 300.558594 L 438.273438 300.558594 L 486.515625 217.394531 L 293.460938 217.394531 L 248.109375 140.636719 L 522 140.636719 L 569.671875 222.628906 Z M 341.730469 459.878906 L 244.621094 459.878906 L 291.71875 385.4375 L 381.851562 385.4375 Z M 548.25 61.453125 L 266.042969 61.453125 C 212.105469 61.453125 168.359375 105.203125 168.359375 159.144531 L 168.359375 441.371094 C 168.359375 495.3125 212.105469 539.0625 266.042969 539.0625 L 548.25 539.0625 C 602.214844 539.0625 645.933594 495.3125 645.933594 441.371094 L 645.933594 159.144531 C 645.933594 105.203125 602.214844 61.453125 548.25 61.453125 " fill-opacity="1" fill-rule="nonzero"/></svg>